<?xml version="1.0" encoding="UTF-8" standalone="no"?><svg xmlns="http://www.w3.org/2000/svg" xmlns:xlink="http://www.w3.org/1999/xlink" contentScriptType="application/ecmascript" contentStyleType="text/css" height="527px" preserveAspectRatio="none" style="width:607px;height:527px;" version="1.1" viewBox="0 0 607 527" width="607px" zoomAndPan="magnify"><defs><filter height="300%" id="f1peiq5jv3a4uk" width="300%" x="-1" y="-1"><feGaussianBlur result="blurOut" stdDeviation="2.0"/><feColorMatrix in="blurOut" result="blurOut2" type="matrix" values="0 0 0 0 0 0 0 0 0 0 0 0 0 0 0 0 0 0 .4 0"/><feOffset dx="4.0" dy="4.0" in="blurOut2" result="blurOut3"/><feBlend in="SourceGraphic" in2="blurOut3" mode="normal"/></filter></defs><g><!--MD5=[81dbadfdb866bc9b521e690dfc501bd4]
cluster MobileDevice--><polygon fill="#FFFFFF" filter="url(#f1peiq5jv3a4uk)" points="30,42,40,32,243,32,243,166,233,176,30,176,30,42" style="stroke: #000000; stroke-width: 1.5;"/><line style="stroke: #000000; stroke-width: 1.5;" x1="233" x2="242" y1="42" y2="33"/><line style="stroke: #000000; stroke-width: 1.5;" x1="30" x2="233" y1="42" y2="42"/><line style="stroke: #000000; stroke-width: 1.5;" x1="233" x2="233" y1="42" y2="176"/><text fill="#000000" font-family="sans-serif" font-size="14" font-style="italic" lengthAdjust="spacingAndGlyphs" textLength="66" x="99.5" y="57.9951">«Device»</text><text fill="#000000" font-family="sans-serif" font-size="14" font-weight="bold" lengthAdjust="spacingAndGlyphs" textLength="137" x="64" y="74.292">Dispositivo Móvel</text><!--MD5=[979da56a7f83e2393dc758167ae295d0]
cluster Server--><polygon fill="#FFFFFF" filter="url(#f1peiq5jv3a4uk)" points="38,251,48,241,585,241,585,505,575,515,38,515,38,251" style="stroke: #000000; stroke-width: 1.5;"/><line style="stroke: #000000; stroke-width: 1.5;" x1="575" x2="584" y1="251" y2="242"/><line style="stroke: #000000; stroke-width: 1.5;" x1="38" x2="575" y1="251" y2="251"/><line style="stroke: #000000; stroke-width: 1.5;" x1="575" x2="575" y1="251" y2="515"/><text fill="#000000" font-family="sans-serif" font-size="14" font-style="italic" lengthAdjust="spacingAndGlyphs" textLength="63" x="276" y="266.9951">«Server»</text><text fill="#000000" font-family="sans-serif" font-size="14" font-weight="bold" lengthAdjust="spacingAndGlyphs" textLength="67" x="274" y="283.292">Servidor</text><!--MD5=[e169ac431914a6adb8cf110c9da1459f]
cluster DB--><path d="M342,331 C342,321 443.5,321 443.5,321 C443.5,321 545,321 545,331 L545,465 C545,475 443.5,475 443.5,475 C443.5,475 342,475 342,465 L342,331 " fill="#FFFFFF" filter="url(#f1peiq5jv3a4uk)" style="stroke: #000000; stroke-width: 1.5;"/><path d="M342,331 C342,341 443.5,341 443.5,341 C443.5,341 545,341 545,331 " fill="none" style="stroke: #000000; stroke-width: 1.5;"/><text fill="#000000" font-family="sans-serif" font-size="14" font-style="italic" lengthAdjust="spacingAndGlyphs" textLength="83" x="402" y="355.9951">«Database»</text><text fill="#000000" font-family="sans-serif" font-size="14" font-weight="bold" lengthAdjust="spacingAndGlyphs" textLength="101" x="393" y="372.292">mini_wms.db</text><!--MD5=[6e8f311b0aa23032184ffba0ef926f91]
entity App--><rect fill="#FEFECE" filter="url(#f1peiq5jv3a4uk)" height="55.5938" style="stroke: #000000; stroke-width: 1.5;" width="130" x="85" y="96"/><polygon fill="#FEFECE" points="198,101,198,115,210,115,210,107,204,101,198,101" style="stroke: #000000; stroke-width: 1.5;"/><line style="stroke: #000000; stroke-width: 1.5;" x1="204" x2="204" y1="101" y2="107"/><line style="stroke: #000000; stroke-width: 1.5;" x1="210" x2="204" y1="107" y2="107"/><text fill="#000000" font-family="sans-serif" font-size="14" font-style="italic" lengthAdjust="spacingAndGlyphs" textLength="66" x="112" y="121.9951">«Artifact»</text><text fill="#000000" font-family="sans-serif" font-size="14" lengthAdjust="spacingAndGlyphs" textLength="100" x="95" y="138.292">FlutterApp.apk</text><!--MD5=[bd77e4585522fc95d2597071890dd3f0]
entity GoExec--><rect fill="#FEFECE" filter="url(#f1peiq5jv3a4uk)" height="55.5938" style="stroke: #000000; stroke-width: 1.5;" width="187" x="81.5" y="395"/><polygon fill="#FEFECE" points="251.5,400,251.5,414,263.5,414,263.5,406,257.5,400,251.5,400" style="stroke: #000000; stroke-width: 1.5;"/><line style="stroke: #000000; stroke-width: 1.5;" x1="257.5" x2="257.5" y1="400" y2="406"/><line style="stroke: #000000; stroke-width: 1.5;" x1="263.5" x2="257.5" y1="406" y2="406"/><text fill="#000000" font-family="sans-serif" font-size="14" font-style="italic" lengthAdjust="spacingAndGlyphs" textLength="66" x="137" y="420.9951">«Artifact»</text><text fill="#000000" font-family="sans-serif" font-size="14" lengthAdjust="spacingAndGlyphs" textLength="157" x="91.5" y="437.292">GoBackendExecutable</text><!--MD5=[43f3acd9b7abb1cc8a5703f2477bf446]
entity Dados do WMS--><rect fill="#FEFECE" filter="url(#f1peiq5jv3a4uk)" height="55.5938" style="stroke: #000000; stroke-width: 1.5;" width="135" x="385.5" y="395"/><polygon fill="#FEFECE" points="503.5,400,503.5,414,515.5,414,515.5,406,509.5,400,503.5,400" style="stroke: #000000; stroke-width: 1.5;"/><line style="stroke: #000000; stroke-width: 1.5;" x1="509.5" x2="509.5" y1="400" y2="406"/><line style="stroke: #000000; stroke-width: 1.5;" x1="515.5" x2="509.5" y1="406" y2="406"/><text fill="#000000" font-family="sans-serif" font-size="14" font-style="italic" lengthAdjust="spacingAndGlyphs" textLength="50" x="423" y="420.9951">«Data»</text><text fill="#000000" font-family="sans-serif" font-size="14" lengthAdjust="spacingAndGlyphs" textLength="105" x="395.5" y="437.292">Dados do WMS</text><!--MD5=[bfacb3194d8316bf3a3bf1628aebc9c3]
link GoExec to DB--><path d="M268.65,423 C288.15,423 307.2425,423 322.025,423 C329.4163,423 335.73,423 340.4784,423 C340.7752,423 341.0659,423 341.3503,423 C341.4925,423 341.6332,423 341.7723,423 C341.8418,423 341.911,423 341.9797,423 " fill="none" id="GoExec-&gt;DB" style="stroke: #A80036; stroke-width: 1.0;"/><polygon fill="#A80036" points="341.9797,423,332.9797,419,336.9797,423,332.9797,427,341.9797,423" style="stroke: #A80036; stroke-width: 1.0;"/><text fill="#000000" font-family="sans-serif" font-size="13" lengthAdjust="spacingAndGlyphs" textLength="45" x="286.57" y="416.0669">acessa</text><!--MD5=[53c4acb1e57e49c6cbc2cf0f4b6374fb]
link MobileDevice to Server--><path d="M46,176.6753 C46,177.1207 46,177.5681 46,178.0176 C46,179.8156 46,181.646 46,183.5067 C46,187.228 46,191.0704 46,195.0165 C46,202.9087 46,211.2158 46,219.7996 C46,224.0915 46,228.4526 46,232.8655 C46,235.0719 46,237.2913 46,239.5216 C46,239.8003 46,240.0793 46,240.3584 C46,240.498 46,240.6376 46,240.7772 C46,240.847 46,240.9168 46,240.9867 " fill="none" id="MobileDevice-&gt;Server" style="stroke: #A80036; stroke-width: 1.0; stroke-dasharray: 7.0,7.0;"/><polygon fill="#A80036" points="46,240.9867,50,231.9867,46,235.9867,42,231.9867,46,240.9867" style="stroke: #A80036; stroke-width: 1.0;"/><text fill="#000000" font-family="sans-serif" font-size="13" lengthAdjust="spacingAndGlyphs" textLength="181" x="47" y="213.0669">Comunicação via HTTP/REST</text><!--MD5=[59f9e58c8128aed2af2a0a07262767c4]
@startuml

node "Dispositivo Móvel" as MobileDevice <<Device>> {
  artifact "FlutterApp.apk" as App <<Artifact>>
}

node "Servidor" as Server <<Server>> {
  artifact "GoBackendExecutable" as GoExec <<Artifact>>
  database "mini_wms.db" as DB <<Database>> {
    artifact "Dados do WMS" <<Data>>
  }
  GoExec -> DB : acessa
}

MobileDevice ..> Server : Comunicação via HTTP/REST

@enduml

PlantUML version 1.2020.02(Sun Mar 01 05:22:07 EST 2020)
(GPL source distribution)
Java Runtime: OpenJDK Runtime Environment
JVM: OpenJDK 64-Bit Server VM
Java Version: 11.0.27+6-post-Ubuntu-0ubuntu122.04
Operating System: Linux
Default Encoding: UTF-8
Language: en
Country: null
--></g></svg>