<?xml version="1.0" encoding="UTF-8" standalone="no"?><svg xmlns="http://www.w3.org/2000/svg" xmlns:xlink="http://www.w3.org/1999/xlink" contentScriptType="application/ecmascript" contentStyleType="text/css" height="1084px" preserveAspectRatio="none" style="width:524px;height:1084px;" version="1.1" viewBox="0 0 524 1084" width="524px" zoomAndPan="magnify"><defs><filter height="300%" id="fl4rv20q7tv5l" width="300%" x="-1" y="-1"><feGaussianBlur result="blurOut" stdDeviation="2.0"/><feColorMatrix in="blurOut" result="blurOut2" type="matrix" values="0 0 0 0 0 0 0 0 0 0 0 0 0 0 0 0 0 0 .4 0"/><feOffset dx="4.0" dy="4.0" in="blurOut2" result="blurOut3"/><feBlend in="SourceGraphic" in2="blurOut3" mode="normal"/></filter></defs><g><!--MD5=[b053e7439603034b419d8bab85145959]
cluster Backend (Go)--><polygon fill="#FFFFFF" filter="url(#fl4rv20q7tv5l)" points="22,24,134,24,141,46.2969,502,46.2969,502,1072,22,1072,22,24" style="stroke: #000000; stroke-width: 1.5;"/><line style="stroke: #000000; stroke-width: 1.5;" x1="22" x2="141" y1="46.2969" y2="46.2969"/><text fill="#000000" font-family="sans-serif" font-size="14" font-weight="bold" lengthAdjust="spacingAndGlyphs" textLength="106" x="26" y="38.9951">Backend (Go)</text><!--MD5=[c05f8d4c5007184b0fb1ea93cdb8d9fe]
class Repository--><rect fill="#FEFECE" filter="url(#fl4rv20q7tv5l)" height="130.7656" id="Repository" style="stroke: #A80036; stroke-width: 1.5;" width="304" x="38" y="509"/><ellipse cx="152.25" cy="527.9688" fill="#B4A7E5" rx="11" ry="11" style="stroke: #A80036; stroke-width: 1.0;"/><path d="M148.1719,523.7344 L148.1719,521.5781 L155.5625,521.5781 L155.5625,523.7344 L153.0938,523.7344 L153.0938,531.8125 L155.5625,531.8125 L155.5625,533.9688 L148.1719,533.9688 L148.1719,531.8125 L150.6406,531.8125 L150.6406,523.7344 L148.1719,523.7344 Z "/><text fill="#000000" font-family="sans-serif" font-size="12" font-style="italic" lengthAdjust="spacingAndGlyphs" textLength="71" x="170.75" y="525.1387">«Interface»</text><text fill="#000000" font-family="sans-serif" font-size="12" font-style="italic" lengthAdjust="spacingAndGlyphs" textLength="66" x="173.25" y="539.1074">Repository</text><line style="stroke: #A80036; stroke-width: 1.5;" x1="39" x2="341" y1="546.9375" y2="546.9375"/><line style="stroke: #A80036; stroke-width: 1.5;" x1="39" x2="341" y1="554.9375" y2="554.9375"/><text fill="#000000" font-family="sans-serif" font-size="11" lengthAdjust="spacingAndGlyphs" textLength="221" x="44" y="569.1479">+CreateProduct(product Product) error</text><text fill="#000000" font-family="sans-serif" font-size="11" lengthAdjust="spacingAndGlyphs" textLength="229" x="44" y="581.9526">+GetProduct(sku string) (Product, error)</text><text fill="#000000" font-family="sans-serif" font-size="11" lengthAdjust="spacingAndGlyphs" textLength="223" x="44" y="594.7573">+UpdateProduct(product Product) error</text><text fill="#000000" font-family="sans-serif" font-size="11" lengthAdjust="spacingAndGlyphs" textLength="186" x="44" y="607.562">+DeleteProduct(sku string) error</text><text fill="#000000" font-family="sans-serif" font-size="11" lengthAdjust="spacingAndGlyphs" textLength="187" x="44" y="620.3667">+ListProducts() ([]Product, error)</text><text fill="#000000" font-family="sans-serif" font-size="11" lengthAdjust="spacingAndGlyphs" textLength="292" x="44" y="633.1714">+UpdateStock(sku string, quantityChange int) error</text><!--MD5=[be7e13c3dd930a638ee5049fbeaadb8b]
class SQLiteRepository--><rect fill="#FEFECE" filter="url(#fl4rv20q7tv5l)" height="143.5703" id="SQLiteRepository" style="stroke: #A80036; stroke-width: 1.5;" width="304" x="38" y="717"/><ellipse cx="133.25" cy="735.9688" fill="#ADD1B2" rx="11" ry="11" style="stroke: #A80036; stroke-width: 1.0;"/><path d="M136.2188,741.6094 Q135.6406,741.9063 135,742.0469 Q134.3594,742.2031 133.6563,742.2031 Q131.1563,742.2031 129.8281,740.5625 Q128.5156,738.9063 128.5156,735.7813 Q128.5156,732.6563 129.8281,731 Q131.1563,729.3438 133.6563,729.3438 Q134.3594,729.3438 135,729.5 Q135.6563,729.6563 136.2188,729.9531 L136.2188,732.6719 Q135.5938,732.0938 135,731.8281 Q134.4063,731.5469 133.7813,731.5469 Q132.4375,731.5469 131.75,732.625 Q131.0625,733.6875 131.0625,735.7813 Q131.0625,737.875 131.75,738.9531 Q132.4375,740.0156 133.7813,740.0156 Q134.4063,740.0156 135,739.75 Q135.5938,739.4688 136.2188,738.8906 L136.2188,741.6094 Z "/><text fill="#000000" font-family="sans-serif" font-size="12" font-style="italic" lengthAdjust="spacingAndGlyphs" textLength="80" x="166.25" y="733.1387">«Repository»</text><text fill="#000000" font-family="sans-serif" font-size="12" lengthAdjust="spacingAndGlyphs" textLength="105" x="153.75" y="747.1074">SQLiteRepository</text><line style="stroke: #A80036; stroke-width: 1.5;" x1="39" x2="341" y1="754.9375" y2="754.9375"/><text fill="#000000" font-family="sans-serif" font-size="11" lengthAdjust="spacingAndGlyphs" textLength="65" x="44" y="769.1479">-db *sql.DB</text><line style="stroke: #A80036; stroke-width: 1.5;" x1="39" x2="341" y1="775.7422" y2="775.7422"/><text fill="#000000" font-family="sans-serif" font-size="11" lengthAdjust="spacingAndGlyphs" textLength="221" x="44" y="789.9526">+CreateProduct(product Product) error</text><text fill="#000000" font-family="sans-serif" font-size="11" lengthAdjust="spacingAndGlyphs" textLength="229" x="44" y="802.7573">+GetProduct(sku string) (Product, error)</text><text fill="#000000" font-family="sans-serif" font-size="11" lengthAdjust="spacingAndGlyphs" textLength="223" x="44" y="815.562">+UpdateProduct(product Product) error</text><text fill="#000000" font-family="sans-serif" font-size="11" lengthAdjust="spacingAndGlyphs" textLength="186" x="44" y="828.3667">+DeleteProduct(sku string) error</text><text fill="#000000" font-family="sans-serif" font-size="11" lengthAdjust="spacingAndGlyphs" textLength="187" x="44" y="841.1714">+ListProducts() ([]Product, error)</text><text fill="#000000" font-family="sans-serif" font-size="11" lengthAdjust="spacingAndGlyphs" textLength="292" x="44" y="853.9761">+UpdateStock(sku string, quantityChange int) error</text><!--MD5=[dbb8b4f13c7b21394f9d757e58732f45]
class Service--><rect fill="#FEFECE" filter="url(#fl4rv20q7tv5l)" height="156.375" id="Service" style="stroke: #A80036; stroke-width: 1.5;" width="266" x="38" y="292"/><ellipse cx="139.25" cy="310.9688" fill="#ADD1B2" rx="11" ry="11" style="stroke: #A80036; stroke-width: 1.0;"/><path d="M142.2188,316.6094 Q141.6406,316.9063 141,317.0469 Q140.3594,317.2031 139.6563,317.2031 Q137.1563,317.2031 135.8281,315.5625 Q134.5156,313.9063 134.5156,310.7813 Q134.5156,307.6563 135.8281,306 Q137.1563,304.3438 139.6563,304.3438 Q140.3594,304.3438 141,304.5 Q141.6563,304.6563 142.2188,304.9531 L142.2188,307.6719 Q141.5938,307.0938 141,306.8281 Q140.4063,306.5469 139.7813,306.5469 Q138.4375,306.5469 137.75,307.625 Q137.0625,308.6875 137.0625,310.7813 Q137.0625,312.875 137.75,313.9531 Q138.4375,315.0156 139.7813,315.0156 Q140.4063,315.0156 141,314.75 Q141.5938,314.4688 142.2188,313.8906 L142.2188,316.6094 Z "/><text fill="#000000" font-family="sans-serif" font-size="12" font-style="italic" lengthAdjust="spacingAndGlyphs" textLength="59" x="157.75" y="308.1387">«Service»</text><text fill="#000000" font-family="sans-serif" font-size="12" lengthAdjust="spacingAndGlyphs" textLength="45" x="164.75" y="322.1074">Service</text><line style="stroke: #A80036; stroke-width: 1.5;" x1="39" x2="303" y1="329.9375" y2="329.9375"/><text fill="#000000" font-family="sans-serif" font-size="11" lengthAdjust="spacingAndGlyphs" textLength="94" x="44" y="344.1479">-repo Repository</text><line style="stroke: #A80036; stroke-width: 1.5;" x1="39" x2="303" y1="350.7422" y2="350.7422"/><text fill="#000000" font-family="sans-serif" font-size="11" lengthAdjust="spacingAndGlyphs" textLength="221" x="44" y="364.9526">+CreateProduct(product Product) error</text><text fill="#000000" font-family="sans-serif" font-size="11" lengthAdjust="spacingAndGlyphs" textLength="229" x="44" y="377.7573">+GetProduct(sku string) (Product, error)</text><text fill="#000000" font-family="sans-serif" font-size="11" lengthAdjust="spacingAndGlyphs" textLength="223" x="44" y="390.562">+UpdateProduct(product Product) error</text><text fill="#000000" font-family="sans-serif" font-size="11" lengthAdjust="spacingAndGlyphs" textLength="186" x="44" y="403.3667">+DeleteProduct(sku string) error</text><text fill="#000000" font-family="sans-serif" font-size="11" lengthAdjust="spacingAndGlyphs" textLength="187" x="44" y="416.1714">+ListProducts() ([]Product, error)</text><text fill="#000000" font-family="sans-serif" font-size="11" lengthAdjust="spacingAndGlyphs" textLength="254" x="44" y="428.9761">+RegisterEntry(sku string, quantity int) error</text><text fill="#000000" font-family="sans-serif" font-size="11" lengthAdjust="spacingAndGlyphs" textLength="245" x="44" y="441.7808">+RegisterExit(sku string, quantity int) error</text><!--MD5=[a83d828be13d333e1fddb3d4d9d97191]
class Handler--><rect fill="#FEFECE" filter="url(#fl4rv20q7tv5l)" height="156.375" id="Handler" style="stroke: #A80036; stroke-width: 1.5;" width="379" x="107.5" y="59"/><ellipse cx="263.25" cy="77.9688" fill="#ADD1B2" rx="11" ry="11" style="stroke: #A80036; stroke-width: 1.0;"/><path d="M266.2188,83.6094 Q265.6406,83.9063 265,84.0469 Q264.3594,84.2031 263.6563,84.2031 Q261.1563,84.2031 259.8281,82.5625 Q258.5156,80.9063 258.5156,77.7813 Q258.5156,74.6563 259.8281,73 Q261.1563,71.3438 263.6563,71.3438 Q264.3594,71.3438 265,71.5 Q265.6563,71.6563 266.2188,71.9531 L266.2188,74.6719 Q265.5938,74.0938 265,73.8281 Q264.4063,73.5469 263.7813,73.5469 Q262.4375,73.5469 261.75,74.625 Q261.0625,75.6875 261.0625,77.7813 Q261.0625,79.875 261.75,80.9531 Q262.4375,82.0156 263.7813,82.0156 Q264.4063,82.0156 265,81.75 Q265.5938,81.4688 266.2188,80.8906 L266.2188,83.6094 Z "/><text fill="#000000" font-family="sans-serif" font-size="12" font-style="italic" lengthAdjust="spacingAndGlyphs" textLength="63" x="281.75" y="75.1387">«Handler»</text><text fill="#000000" font-family="sans-serif" font-size="12" lengthAdjust="spacingAndGlyphs" textLength="49" x="288.75" y="89.1074">Handler</text><line style="stroke: #A80036; stroke-width: 1.5;" x1="108.5" x2="485.5" y1="96.9375" y2="96.9375"/><text fill="#000000" font-family="sans-serif" font-size="11" lengthAdjust="spacingAndGlyphs" textLength="91" x="113.5" y="111.1479">-service Service</text><line style="stroke: #A80036; stroke-width: 1.5;" x1="108.5" x2="485.5" y1="117.7422" y2="117.7422"/><text fill="#000000" font-family="sans-serif" font-size="11" lengthAdjust="spacingAndGlyphs" textLength="365" x="113.5" y="131.9526">+CreateProductHandler(w http.ResponseWriter, r *http.Request)</text><text fill="#000000" font-family="sans-serif" font-size="11" lengthAdjust="spacingAndGlyphs" textLength="347" x="113.5" y="144.7573">+GetProductHandler(w http.ResponseWriter, r *http.Request)</text><text fill="#000000" font-family="sans-serif" font-size="11" lengthAdjust="spacingAndGlyphs" textLength="367" x="113.5" y="157.562">+UpdateProductHandler(w http.ResponseWriter, r *http.Request)</text><text fill="#000000" font-family="sans-serif" font-size="11" lengthAdjust="spacingAndGlyphs" textLength="363" x="113.5" y="170.3667">+DeleteProductHandler(w http.ResponseWriter, r *http.Request)</text><text fill="#000000" font-family="sans-serif" font-size="11" lengthAdjust="spacingAndGlyphs" textLength="354" x="113.5" y="183.1714">+ListProductsHandler(w http.ResponseWriter, r *http.Request)</text><text fill="#000000" font-family="sans-serif" font-size="11" lengthAdjust="spacingAndGlyphs" textLength="360" x="113.5" y="195.9761">+RegisterEntryHandler(w http.ResponseWriter, r *http.Request)</text><text fill="#000000" font-family="sans-serif" font-size="11" lengthAdjust="spacingAndGlyphs" textLength="351" x="113.5" y="208.7808">+RegisterExitHandler(w http.ResponseWriter, r *http.Request)</text><!--MD5=[72136138052d025cffdce3c22fbd185f]
class Product--><rect fill="#FEFECE" filter="url(#fl4rv20q7tv5l)" height="117.9609" id="Product" style="stroke: #A80036; stroke-width: 1.5;" width="185" x="285.5" y="938"/><ellipse cx="349.25" cy="956.9688" fill="#ADD1B2" rx="11" ry="11" style="stroke: #A80036; stroke-width: 1.0;"/><path d="M352.2188,962.6094 Q351.6406,962.9063 351,963.0469 Q350.3594,963.2031 349.6563,963.2031 Q347.1563,963.2031 345.8281,961.5625 Q344.5156,959.9063 344.5156,956.7813 Q344.5156,953.6563 345.8281,952 Q347.1563,950.3438 349.6563,950.3438 Q350.3594,950.3438 351,950.5 Q351.6563,950.6563 352.2188,950.9531 L352.2188,953.6719 Q351.5938,953.0938 351,952.8281 Q350.4063,952.5469 349.7813,952.5469 Q348.4375,952.5469 347.75,953.625 Q347.0625,954.6875 347.0625,956.7813 Q347.0625,958.875 347.75,959.9531 Q348.4375,961.0156 349.7813,961.0156 Q350.4063,961.0156 351,960.75 Q351.5938,960.4688 352.2188,959.8906 L352.2188,962.6094 Z "/><text fill="#000000" font-family="sans-serif" font-size="12" font-style="italic" lengthAdjust="spacingAndGlyphs" textLength="50" x="369.25" y="954.1387">«Entity»</text><text fill="#000000" font-family="sans-serif" font-size="12" lengthAdjust="spacingAndGlyphs" textLength="49" x="369.75" y="968.1074">Product</text><line style="stroke: #A80036; stroke-width: 1.5;" x1="286.5" x2="469.5" y1="975.9375" y2="975.9375"/><text fill="#000000" font-family="sans-serif" font-size="11" lengthAdjust="spacingAndGlyphs" textLength="69" x="291.5" y="990.1479">+SKU string</text><text fill="#000000" font-family="sans-serif" font-size="11" lengthAdjust="spacingAndGlyphs" textLength="79" x="291.5" y="1002.9526">+Name string</text><text fill="#000000" font-family="sans-serif" font-size="11" lengthAdjust="spacingAndGlyphs" textLength="173" x="291.5" y="1015.7573">+Description string «optional»</text><text fill="#000000" font-family="sans-serif" font-size="11" lengthAdjust="spacingAndGlyphs" textLength="68" x="291.5" y="1028.562">+Unit string</text><text fill="#000000" font-family="sans-serif" font-size="11" lengthAdjust="spacingAndGlyphs" textLength="115" x="291.5" y="1041.3667">+QuantityInStock int</text><line style="stroke: #A80036; stroke-width: 1.5;" x1="286.5" x2="469.5" y1="1047.9609" y2="1047.9609"/><!--MD5=[77ff875d8c6e87cee38ff6f9898ab848]
class APIError--><rect fill="#FEFECE" filter="url(#fl4rv20q7tv5l)" height="79.5469" id="APIError" style="stroke: #A80036; stroke-width: 1.5;" width="109" x="376.5" y="330"/><ellipse cx="403.65" cy="348.9688" fill="#ADD1B2" rx="11" ry="11" style="stroke: #A80036; stroke-width: 1.0;"/><path d="M406.6188,354.6094 Q406.0406,354.9063 405.4,355.0469 Q404.7594,355.2031 404.0563,355.2031 Q401.5563,355.2031 400.2281,353.5625 Q398.9156,351.9063 398.9156,348.7813 Q398.9156,345.6563 400.2281,344 Q401.5563,342.3438 404.0563,342.3438 Q404.7594,342.3438 405.4,342.5 Q406.0563,342.6563 406.6188,342.9531 L406.6188,345.6719 Q405.9938,345.0938 405.4,344.8281 Q404.8063,344.5469 404.1813,344.5469 Q402.8375,344.5469 402.15,345.625 Q401.4625,346.6875 401.4625,348.7813 Q401.4625,350.875 402.15,351.9531 Q402.8375,353.0156 404.1813,353.0156 Q404.8063,353.0156 405.4,352.75 Q405.9938,352.4688 406.6188,351.8906 L406.6188,354.6094 Z "/><text fill="#000000" font-family="sans-serif" font-size="12" font-style="italic" lengthAdjust="spacingAndGlyphs" textLength="38" x="426.35" y="346.1387">«DTO»</text><text fill="#000000" font-family="sans-serif" font-size="12" lengthAdjust="spacingAndGlyphs" textLength="50" x="420.35" y="360.1074">APIError</text><line style="stroke: #A80036; stroke-width: 1.5;" x1="377.5" x2="484.5" y1="367.9375" y2="367.9375"/><text fill="#000000" font-family="sans-serif" font-size="11" lengthAdjust="spacingAndGlyphs" textLength="56" x="382.5" y="382.1479">+Code int</text><text fill="#000000" font-family="sans-serif" font-size="11" lengthAdjust="spacingAndGlyphs" textLength="97" x="382.5" y="394.9526">+Message string</text><line style="stroke: #A80036; stroke-width: 1.5;" x1="377.5" x2="484.5" y1="401.5469" y2="401.5469"/><!--MD5=[68934c95f7c19f55be7f7067f6c97fde]
reverse link Repository to SQLiteRepository--><path d="M190,660.29 C190,678.97 190,698.56 190,716.64 " fill="none" id="Repository&lt;-SQLiteRepository" style="stroke: #A80036; stroke-width: 1.0; stroke-dasharray: 7.0,7.0;"/><polygon fill="none" points="183,660.12,190,640.12,197,660.12,183,660.12" style="stroke: #A80036; stroke-width: 1.0;"/><!--MD5=[265e5d2cdaf160d8f5a99bd20dcb8a41]
link Handler to Service--><path d="M254.87,215.24 C242.26,238.36 228.39,263.78 215.63,287.18 " fill="none" id="Handler-&gt;Service" style="stroke: #A80036; stroke-width: 1.0;"/><polygon fill="#A80036" points="213.09,291.83,220.9194,285.8551,215.4903,287.4438,213.9015,282.0146,213.09,291.83" style="stroke: #A80036; stroke-width: 1.0;"/><!--MD5=[81f86c4a65986ff24d640374da06d0c2]
link Service to Repository--><path d="M178.24,448.13 C179.95,466.42 181.77,485.82 183.46,503.76 " fill="none" id="Service-&gt;Repository" style="stroke: #A80036; stroke-width: 1.0;"/><polygon fill="#A80036" points="183.93,508.78,187.0891,499.4515,183.4722,503.801,179.1227,500.1841,183.93,508.78" style="stroke: #A80036; stroke-width: 1.0;"/><!--MD5=[6fd0dfa74ffe8fd205761ccdf0ff67ff]
link SQLiteRepository to Product--><path d="M254.96,861.18 C276.53,884.82 300.37,910.93 321.27,933.83 " fill="none" id="SQLiteRepository-&gt;Product" style="stroke: #A80036; stroke-width: 1.0; stroke-dasharray: 7.0,7.0;"/><polygon fill="#A80036" points="324.86,937.78,321.7549,928.4334,321.4924,934.0842,315.8416,933.8216,324.86,937.78" style="stroke: #A80036; stroke-width: 1.0;"/><text fill="#000000" font-family="sans-serif" font-size="13" lengthAdjust="spacingAndGlyphs" textLength="30" x="296" y="904.0669">uses</text><!--MD5=[351649a11f4402f0a2349fdad1957aec]
link Service to Product--><path d="M304.2,443.92 C326.47,462.19 346.65,483.89 360,509 C432.56,645.52 410.7,835.27 392.25,932.71 " fill="none" id="Service-&gt;Product" style="stroke: #A80036; stroke-width: 1.0; stroke-dasharray: 7.0,7.0;"/><polygon fill="#A80036" points="391.26,937.85,396.8842,929.7649,392.2021,932.9396,389.0275,928.2575,391.26,937.85" style="stroke: #A80036; stroke-width: 1.0;"/><text fill="#000000" font-family="sans-serif" font-size="13" lengthAdjust="spacingAndGlyphs" textLength="30" x="408" y="683.0669">uses</text><!--MD5=[6acd3c9903913450b06548501c9f9e51]
link Handler to Product--><path d="M310.1,215.31 C323.61,292.6 344.69,405.84 359,448 C368.71,476.61 377.43,481.09 389,509 C420.72,585.49 450.83,604.48 444,687 C435.79,786.25 431.01,811.35 407,908 C405.01,916.02 402.65,924.36 400.15,932.57 " fill="none" id="Handler-&gt;Product" style="stroke: #A80036; stroke-width: 1.0; stroke-dasharray: 7.0,7.0;"/><polygon fill="#A80036" points="398.58,937.66,405.0483,930.233,400.0494,932.8808,397.4016,927.8819,398.58,937.66" style="stroke: #A80036; stroke-width: 1.0;"/><text fill="#000000" font-family="sans-serif" font-size="13" lengthAdjust="spacingAndGlyphs" textLength="30" x="444" y="579.0669">uses</text><!--MD5=[096d1921993fd5ac7456ec42b0851e65]
link Handler to APIError--><path d="M341.81,215.24 C363.05,251.87 387.66,294.28 405.64,325.28 " fill="none" id="Handler-&gt;APIError" style="stroke: #A80036; stroke-width: 1.0; stroke-dasharray: 7.0,7.0;"/><polygon fill="#A80036" points="408.24,329.76,407.1643,319.9701,405.7224,325.4401,400.2524,323.9982,408.24,329.76" style="stroke: #A80036; stroke-width: 1.0;"/><text fill="#000000" font-family="sans-serif" font-size="13" lengthAdjust="spacingAndGlyphs" textLength="30" x="369" y="258.0669">uses</text><!--MD5=[ea26355d2feb9a68a808e3c8d0ae1165]
@startuml

skinparam classAttributeIconSize 0

package "Backend (Go)" {

  interface Repository <<Interface>> {
    + CreateProduct(product Product) error
    + GetProduct(sku string) (Product, error)
    + UpdateProduct(product Product) error
    + DeleteProduct(sku string) error
    + ListProducts() ([]Product, error)
    + UpdateStock(sku string, quantityChange int) error
  }

  class SQLiteRepository <<Repository>> implements Repository {
    - db *sql.DB
    + CreateProduct(product Product) error
    + GetProduct(sku string) (Product, error)
    + UpdateProduct(product Product) error
    + DeleteProduct(sku string) error
    + ListProducts() ([]Product, error)
    + UpdateStock(sku string, quantityChange int) error
  }

  class Service <<Service>> {
    - repo Repository
    + CreateProduct(product Product) error
    + GetProduct(sku string) (Product, error)
    + UpdateProduct(product Product) error
    + DeleteProduct(sku string) error
    + ListProducts() ([]Product, error)
    + RegisterEntry(sku string, quantity int) error
    + RegisterExit(sku string, quantity int) error
  }

  class Handler <<Handler>> {
    - service Service
    + CreateProductHandler(w http.ResponseWriter, r *http.Request)
    + GetProductHandler(w http.ResponseWriter, r *http.Request)
    + UpdateProductHandler(w http.ResponseWriter, r *http.Request)
    + DeleteProductHandler(w http.ResponseWriter, r *http.Request)
    + ListProductsHandler(w http.ResponseWriter, r *http.Request)
    + RegisterEntryHandler(w http.ResponseWriter, r *http.Request)
    + RegisterExitHandler(w http.ResponseWriter, r *http.Request)
  }

  class Product <<Entity>> {
    + SKU string
    + Name string
    + Description string <<optional>>
    + Unit string
    + QuantityInStock int
  }

  class APIError <<DTO>> {
    + Code int
    + Message string
  }

  Handler - -> Service
  Service - -> Repository
  SQLiteRepository ..> Product : uses
  Service ..> Product : uses
  Handler ..> Product : uses
  Handler ..> APIError : uses

}

@enduml

PlantUML version 1.2020.02(Sun Mar 01 05:22:07 EST 2020)
(GPL source distribution)
Java Runtime: OpenJDK Runtime Environment
JVM: OpenJDK 64-Bit Server VM
Java Version: 11.0.27+6-post-Ubuntu-0ubuntu122.04
Operating System: Linux
Default Encoding: UTF-8
Language: en
Country: null
--></g></svg>